<svg xmlns="http://www.w3.org/2000/svg" width="136.438" height="133.381" viewBox="0 0 136.438 133.381"><g transform="translate(-145.781 -418.542)"><g transform="translate(115.562 374.082)"><path d="M180.26,18.524c-20.419-2.74-38.219-8.4-52.91-16.819a13.717,13.717,0,0,0-6.762-1.71c-18.308,44.238-18.731,87.995,0,131.239a21.468,21.468,0,0,0,5.061-.6c38.7-9.487,63.7-32.133,63.7-57.7V26.586C189.354,22.623,185.528,19.231,180.26,18.524Z" transform="translate(-22.697 46.608)" fill="#38b177"/><path d="M39.313,18.524c20.419-2.74,38.219-8.4,52.91-16.819a13.717,13.717,0,0,1,6.762-1.71V131.234a21.468,21.468,0,0,1-5.061-.6c-38.7-9.487-63.7-32.133-63.7-57.7V26.586C30.221,22.623,34.044,19.231,39.313,18.524Z" transform="translate(0 46.608)" fill="#2e9764"/><path d="M109.613,63.28c-.366-.01-.723-.055-1.093-.055a42.486,42.486,0,1,0,0,84.971c.37,0,.727-.045,1.093-.055A320.994,320.994,0,0,0,109.613,63.28Z" transform="translate(-10.629 -18.765)" fill="#cfe6db"/><path d="M128,63.28c.368-.01.725-.055,1.093-.055a42.486,42.486,0,1,1,0,84.971c-.37,0-.727-.045-1.093-.055Z" transform="translate(-29.02 -18.765)" fill="#e4f0ea"/><path d="M117.145,113.477l-4.788,4.788-6.464-6.464a5.889,5.889,0,0,0-8.315,0l-4.446,4.446a5.889,5.889,0,0,0,0,8.317L108.2,139.63a5.887,5.887,0,0,0,8.315,0l.628-.628C120.8,130.266,121,121.747,117.145,113.477Z" transform="translate(-18.16 -32.671)" fill="#165c3a"/><path d="M149.831,105.763l-4.444-4.446a6.024,6.024,0,0,0-8.317,0l-9.062,9.062V135.9l21.824-21.826A5.885,5.885,0,0,0,149.831,105.763Z" transform="translate(-29.02 -29.575)" fill="#196942"/></g></g></svg>